ISO-10303-21;
HEADER;
/* Generated by software containing ST-Developer
 * from STEP Tools, Inc. (www.steptools.com) 
 */

FILE_DESCRIPTION(
/* description */ (''),
/* implementation_level */ '2;1');

FILE_NAME(
/* name */ 'Expo Bearing Base.step',
/* time_stamp */ '2023-09-23T13:07:38-05:00',
/* author */ (''),
/* organization */ (''),
/* preprocessor_version */ 'ST-DEVELOPER v20',
/* originating_system */ 'Autodesk Translation Framework v12.9.0.99',
/* authorisation */ '');

FILE_SCHEMA (('AUTOMOTIVE_DESIGN { 1 0 10303 214 3 1 1 }'));
ENDSEC;

DATA;
#10=MECHANICAL_DESIGN_GEOMETRIC_PRESENTATION_REPRESENTATION('',(#17),#432);
#11=ITEM_DEFINED_TRANSFORMATION($,$,#242,#279);
#12=(
REPRESENTATION_RELATIONSHIP($,$,#446,#445)
REPRESENTATION_RELATIONSHIP_WITH_TRANSFORMATION(#11)
SHAPE_REPRESENTATION_RELATIONSHIP()
);
#13=CONTEXT_DEPENDENT_SHAPE_REPRESENTATION(#12,#444);
#14=NEXT_ASSEMBLY_USAGE_OCCURRENCE('Bearing Cap:1','Bearing Cap:1',
'Bearing Cap:1',#448,#449,'Bearing Cap:1');
#15=SHAPE_REPRESENTATION_RELATIONSHIP('SRR','None',#446,#16);
#16=ADVANCED_BREP_SHAPE_REPRESENTATION('',(#228),#431);
#17=STYLED_ITEM('',(#462),#228);
#18=ORIENTED_CLOSED_SHELL('',*,#224,.F.);
#19=ORIENTED_CLOSED_SHELL('',*,#225,.F.);
#20=ORIENTED_CLOSED_SHELL('',*,#226,.F.);
#21=ORIENTED_CLOSED_SHELL('',*,#227,.F.);
#22=FACE_BOUND('',#79,.T.);
#23=FACE_BOUND('',#81,.T.);
#24=FACE_BOUND('',#85,.T.);
#25=PLANE('',#250);
#26=PLANE('',#252);
#27=PLANE('',#258);
#28=PLANE('',#262);
#29=PLANE('',#263);
#30=PLANE('',#267);
#31=PLANE('',#268);
#32=PLANE('',#272);
#33=PLANE('',#273);
#34=PLANE('',#277);
#35=PLANE('',#278);
#36=LINE('',#378,#43);
#37=LINE('',#388,#44);
#38=LINE('',#392,#45);
#39=LINE('',#398,#46);
#40=LINE('',#406,#47);
#41=LINE('',#414,#48);
#42=LINE('',#422,#49);
#43=VECTOR('',#298,0.2525);
#44=VECTOR('',#311,0.0590551181102362);
#45=VECTOR('',#316,0.515625);
#46=VECTOR('',#323,0.16748031496063);
#47=VECTOR('',#334,0.16748031496063);
#48=VECTOR('',#345,0.16748031496063);
#49=VECTOR('',#356,0.16748031496063);
#50=CYLINDRICAL_SURFACE('',#248,0.2525);
#51=CYLINDRICAL_SURFACE('',#254,0.0590551181102362);
#52=CYLINDRICAL_SURFACE('',#256,0.515625);
#53=CYLINDRICAL_SURFACE('',#259,0.16748031496063);
#54=CYLINDRICAL_SURFACE('',#264,0.16748031496063);
#55=CYLINDRICAL_SURFACE('',#269,0.16748031496063);
#56=CYLINDRICAL_SURFACE('',#274,0.16748031496063);
#57=FACE_OUTER_BOUND('',#76,.T.);
#58=FACE_OUTER_BOUND('',#77,.T.);
#59=FACE_OUTER_BOUND('',#78,.T.);
#60=FACE_OUTER_BOUND('',#80,.T.);
#61=FACE_OUTER_BOUND('',#82,.T.);
#62=FACE_OUTER_BOUND('',#83,.T.);
#63=FACE_OUTER_BOUND('',#84,.T.);
#64=FACE_OUTER_BOUND('',#86,.T.);
#65=FACE_OUTER_BOUND('',#87,.T.);
#66=FACE_OUTER_BOUND('',#88,.T.);
#67=FACE_OUTER_BOUND('',#89,.T.);
#68=FACE_OUTER_BOUND('',#90,.T.);
#69=FACE_OUTER_BOUND('',#91,.T.);
#70=FACE_OUTER_BOUND('',#92,.T.);
#71=FACE_OUTER_BOUND('',#93,.T.);
#72=FACE_OUTER_BOUND('',#94,.T.);
#73=FACE_OUTER_BOUND('',#95,.T.);
#74=FACE_OUTER_BOUND('',#96,.T.);
#75=FACE_OUTER_BOUND('',#97,.T.);
#76=EDGE_LOOP('',(#155,#156,#157,#158,#159));
#77=EDGE_LOOP('',(#160,#161,#162,#163,#164));
#78=EDGE_LOOP('',(#165));
#79=EDGE_LOOP('',(#166));
#80=EDGE_LOOP('',(#167));
#81=EDGE_LOOP('',(#168));
#82=EDGE_LOOP('',(#169,#170,#171,#172));
#83=EDGE_LOOP('',(#173,#174,#175,#176));
#84=EDGE_LOOP('',(#177));
#85=EDGE_LOOP('',(#178));
#86=EDGE_LOOP('',(#179,#180,#181,#182));
#87=EDGE_LOOP('',(#183));
#88=EDGE_LOOP('',(#184));
#89=EDGE_LOOP('',(#185,#186,#187,#188));
#90=EDGE_LOOP('',(#189));
#91=EDGE_LOOP('',(#190));
#92=EDGE_LOOP('',(#191,#192,#193,#194));
#93=EDGE_LOOP('',(#195));
#94=EDGE_LOOP('',(#196));
#95=EDGE_LOOP('',(#197,#198,#199,#200));
#96=EDGE_LOOP('',(#201));
#97=EDGE_LOOP('',(#202));
#98=CIRCLE('',#244,0.2525);
#99=CIRCLE('',#245,0.075);
#100=CIRCLE('',#246,0.3275);
#101=CIRCLE('',#247,0.2525);
#102=CIRCLE('',#249,0.2525);
#103=CIRCLE('',#251,0.515625);
#104=CIRCLE('',#253,0.0590551181102362);
#105=CIRCLE('',#255,0.0590551181102362);
#106=CIRCLE('',#257,0.515625);
#107=CIRCLE('',#260,0.16748031496063);
#108=CIRCLE('',#261,0.16748031496063);
#109=CIRCLE('',#265,0.16748031496063);
#110=CIRCLE('',#266,0.16748031496063);
#111=CIRCLE('',#270,0.16748031496063);
#112=CIRCLE('',#271,0.16748031496063);
#113=CIRCLE('',#275,0.16748031496063);
#114=CIRCLE('',#276,0.16748031496063);
#115=VERTEX_POINT('',#368);
#116=VERTEX_POINT('',#369);
#117=VERTEX_POINT('',#371);
#118=VERTEX_POINT('',#376);
#119=VERTEX_POINT('',#380);
#120=VERTEX_POINT('',#383);
#121=VERTEX_POINT('',#386);
#122=VERTEX_POINT('',#390);
#123=VERTEX_POINT('',#395);
#124=VERTEX_POINT('',#397);
#125=VERTEX_POINT('',#403);
#126=VERTEX_POINT('',#405);
#127=VERTEX_POINT('',#411);
#128=VERTEX_POINT('',#413);
#129=VERTEX_POINT('',#419);
#130=VERTEX_POINT('',#421);
#131=EDGE_CURVE('',#115,#116,#98,.T.);
#132=EDGE_CURVE('',#116,#117,#99,.T.);
#133=EDGE_CURVE('',#117,#117,#100,.T.);
#134=EDGE_CURVE('',#116,#115,#101,.T.);
#135=EDGE_CURVE('',#118,#118,#102,.T.);
#136=EDGE_CURVE('',#118,#115,#36,.T.);
#137=EDGE_CURVE('',#119,#119,#103,.T.);
#138=EDGE_CURVE('',#120,#120,#104,.T.);
#139=EDGE_CURVE('',#121,#121,#105,.T.);
#140=EDGE_CURVE('',#121,#120,#37,.T.);
#141=EDGE_CURVE('',#122,#122,#106,.T.);
#142=EDGE_CURVE('',#122,#119,#38,.T.);
#143=EDGE_CURVE('',#123,#123,#107,.T.);
#144=EDGE_CURVE('',#123,#124,#39,.T.);
#145=EDGE_CURVE('',#124,#124,#108,.T.);
#146=EDGE_CURVE('',#125,#125,#109,.T.);
#147=EDGE_CURVE('',#125,#126,#40,.T.);
#148=EDGE_CURVE('',#126,#126,#110,.T.);
#149=EDGE_CURVE('',#127,#127,#111,.T.);
#150=EDGE_CURVE('',#127,#128,#41,.T.);
#151=EDGE_CURVE('',#128,#128,#112,.T.);
#152=EDGE_CURVE('',#129,#129,#113,.T.);
#153=EDGE_CURVE('',#129,#130,#42,.T.);
#154=EDGE_CURVE('',#130,#130,#114,.T.);
#155=ORIENTED_EDGE('',*,*,#131,.T.);
#156=ORIENTED_EDGE('',*,*,#132,.T.);
#157=ORIENTED_EDGE('',*,*,#133,.T.);
#158=ORIENTED_EDGE('',*,*,#132,.F.);
#159=ORIENTED_EDGE('',*,*,#134,.T.);
#160=ORIENTED_EDGE('',*,*,#135,.F.);
#161=ORIENTED_EDGE('',*,*,#136,.T.);
#162=ORIENTED_EDGE('',*,*,#134,.F.);
#163=ORIENTED_EDGE('',*,*,#131,.F.);
#164=ORIENTED_EDGE('',*,*,#136,.F.);
#165=ORIENTED_EDGE('',*,*,#137,.T.);
#166=ORIENTED_EDGE('',*,*,#133,.F.);
#167=ORIENTED_EDGE('',*,*,#135,.T.);
#168=ORIENTED_EDGE('',*,*,#138,.T.);
#169=ORIENTED_EDGE('',*,*,#139,.F.);
#170=ORIENTED_EDGE('',*,*,#140,.T.);
#171=ORIENTED_EDGE('',*,*,#138,.F.);
#172=ORIENTED_EDGE('',*,*,#140,.F.);
#173=ORIENTED_EDGE('',*,*,#141,.F.);
#174=ORIENTED_EDGE('',*,*,#142,.T.);
#175=ORIENTED_EDGE('',*,*,#137,.F.);
#176=ORIENTED_EDGE('',*,*,#142,.F.);
#177=ORIENTED_EDGE('',*,*,#141,.T.);
#178=ORIENTED_EDGE('',*,*,#139,.T.);
#179=ORIENTED_EDGE('',*,*,#143,.F.);
#180=ORIENTED_EDGE('',*,*,#144,.T.);
#181=ORIENTED_EDGE('',*,*,#145,.T.);
#182=ORIENTED_EDGE('',*,*,#144,.F.);
#183=ORIENTED_EDGE('',*,*,#145,.F.);
#184=ORIENTED_EDGE('',*,*,#143,.T.);
#185=ORIENTED_EDGE('',*,*,#146,.F.);
#186=ORIENTED_EDGE('',*,*,#147,.T.);
#187=ORIENTED_EDGE('',*,*,#148,.T.);
#188=ORIENTED_EDGE('',*,*,#147,.F.);
#189=ORIENTED_EDGE('',*,*,#148,.F.);
#190=ORIENTED_EDGE('',*,*,#146,.T.);
#191=ORIENTED_EDGE('',*,*,#149,.F.);
#192=ORIENTED_EDGE('',*,*,#150,.T.);
#193=ORIENTED_EDGE('',*,*,#151,.T.);
#194=ORIENTED_EDGE('',*,*,#150,.F.);
#195=ORIENTED_EDGE('',*,*,#151,.F.);
#196=ORIENTED_EDGE('',*,*,#149,.T.);
#197=ORIENTED_EDGE('',*,*,#152,.F.);
#198=ORIENTED_EDGE('',*,*,#153,.T.);
#199=ORIENTED_EDGE('',*,*,#154,.T.);
#200=ORIENTED_EDGE('',*,*,#153,.F.);
#201=ORIENTED_EDGE('',*,*,#154,.F.);
#202=ORIENTED_EDGE('',*,*,#152,.T.);
#203=TOROIDAL_SURFACE('',#243,0.3275,0.075);
#204=ADVANCED_FACE('',(#57),#203,.F.);
#205=ADVANCED_FACE('',(#58),#50,.T.);
#206=ADVANCED_FACE('',(#59,#22),#25,.T.);
#207=ADVANCED_FACE('',(#60,#23),#26,.T.);
#208=ADVANCED_FACE('',(#61),#51,.F.);
#209=ADVANCED_FACE('',(#62),#52,.T.);
#210=ADVANCED_FACE('',(#63,#24),#27,.F.);
#211=ADVANCED_FACE('',(#64),#53,.F.);
#212=ADVANCED_FACE('',(#65),#28,.F.);
#213=ADVANCED_FACE('',(#66),#29,.T.);
#214=ADVANCED_FACE('',(#67),#54,.F.);
#215=ADVANCED_FACE('',(#68),#30,.F.);
#216=ADVANCED_FACE('',(#69),#31,.T.);
#217=ADVANCED_FACE('',(#70),#55,.F.);
#218=ADVANCED_FACE('',(#71),#32,.F.);
#219=ADVANCED_FACE('',(#72),#33,.T.);
#220=ADVANCED_FACE('',(#73),#56,.F.);
#221=ADVANCED_FACE('',(#74),#34,.F.);
#222=ADVANCED_FACE('',(#75),#35,.T.);
#223=CLOSED_SHELL('',(#204,#205,#206,#207,#208,#209,#210));
#224=CLOSED_SHELL('',(#211,#212,#213));
#225=CLOSED_SHELL('',(#214,#215,#216));
#226=CLOSED_SHELL('',(#217,#218,#219));
#227=CLOSED_SHELL('',(#220,#221,#222));
#228=BREP_WITH_VOIDS('Bottom Cap',#223,(#18,#19,#20,#21));
#229=DERIVED_UNIT_ELEMENT(#231,1.);
#230=DERIVED_UNIT_ELEMENT(#436,-3.);
#231=(
MASS_UNIT()
NAMED_UNIT(*)
SI_UNIT(.KILO.,.GRAM.)
);
#232=DERIVED_UNIT((#229,#230));
#233=MEASURE_REPRESENTATION_ITEM('density measure',
POSITIVE_RATIO_MEASURE(7850.),#232);
#234=PROPERTY_DEFINITION_REPRESENTATION(#239,#236);
#235=PROPERTY_DEFINITION_REPRESENTATION(#240,#237);
#236=REPRESENTATION('material name',(#238),#431);
#237=REPRESENTATION('density',(#233),#431);
#238=DESCRIPTIVE_REPRESENTATION_ITEM('Steel','Steel');
#239=PROPERTY_DEFINITION('material property','material name',#449);
#240=PROPERTY_DEFINITION('material property','density of part',#449);
#241=AXIS2_PLACEMENT_3D('',#365,#280,#281);
#242=AXIS2_PLACEMENT_3D('',#366,#282,#283);
#243=AXIS2_PLACEMENT_3D('',#367,#284,#285);
#244=AXIS2_PLACEMENT_3D('',#370,#286,#287);
#245=AXIS2_PLACEMENT_3D('',#372,#288,#289);
#246=AXIS2_PLACEMENT_3D('',#373,#290,#291);
#247=AXIS2_PLACEMENT_3D('',#374,#292,#293);
#248=AXIS2_PLACEMENT_3D('',#375,#294,#295);
#249=AXIS2_PLACEMENT_3D('',#377,#296,#297);
#250=AXIS2_PLACEMENT_3D('',#379,#299,#300);
#251=AXIS2_PLACEMENT_3D('',#381,#301,#302);
#252=AXIS2_PLACEMENT_3D('',#382,#303,#304);
#253=AXIS2_PLACEMENT_3D('',#384,#305,#306);
#254=AXIS2_PLACEMENT_3D('',#385,#307,#308);
#255=AXIS2_PLACEMENT_3D('',#387,#309,#310);
#256=AXIS2_PLACEMENT_3D('',#389,#312,#313);
#257=AXIS2_PLACEMENT_3D('',#391,#314,#315);
#258=AXIS2_PLACEMENT_3D('',#393,#317,#318);
#259=AXIS2_PLACEMENT_3D('',#394,#319,#320);
#260=AXIS2_PLACEMENT_3D('',#396,#321,#322);
#261=AXIS2_PLACEMENT_3D('',#399,#324,#325);
#262=AXIS2_PLACEMENT_3D('',#400,#326,#327);
#263=AXIS2_PLACEMENT_3D('',#401,#328,#329);
#264=AXIS2_PLACEMENT_3D('',#402,#330,#331);
#265=AXIS2_PLACEMENT_3D('',#404,#332,#333);
#266=AXIS2_PLACEMENT_3D('',#407,#335,#336);
#267=AXIS2_PLACEMENT_3D('',#408,#337,#338);
#268=AXIS2_PLACEMENT_3D('',#409,#339,#340);
#269=AXIS2_PLACEMENT_3D('',#410,#341,#342);
#270=AXIS2_PLACEMENT_3D('',#412,#343,#344);
#271=AXIS2_PLACEMENT_3D('',#415,#346,#347);
#272=AXIS2_PLACEMENT_3D('',#416,#348,#349);
#273=AXIS2_PLACEMENT_3D('',#417,#350,#351);
#274=AXIS2_PLACEMENT_3D('',#418,#352,#353);
#275=AXIS2_PLACEMENT_3D('',#420,#354,#355);
#276=AXIS2_PLACEMENT_3D('',#423,#357,#358);
#277=AXIS2_PLACEMENT_3D('',#424,#359,#360);
#278=AXIS2_PLACEMENT_3D('',#425,#361,#362);
#279=AXIS2_PLACEMENT_3D('',#426,#363,#364);
#280=DIRECTION('axis',(0.,0.,1.));
#281=DIRECTION('refdir',(1.,0.,0.));
#282=DIRECTION('axis',(0.,0.,1.));
#283=DIRECTION('refdir',(1.,0.,0.));
#284=DIRECTION('center_axis',(0.,-1.,0.));
#285=DIRECTION('ref_axis',(0.,0.,-1.));
#286=DIRECTION('center_axis',(0.,-1.,0.));
#287=DIRECTION('ref_axis',(1.,0.,0.));
#288=DIRECTION('center_axis',(-1.,0.,-1.22464679914735E-16));
#289=DIRECTION('ref_axis',(-1.22464679914735E-16,0.,1.));
#290=DIRECTION('center_axis',(0.,1.,0.));
#291=DIRECTION('ref_axis',(1.,0.,0.));
#292=DIRECTION('center_axis',(0.,-1.,0.));
#293=DIRECTION('ref_axis',(1.,0.,0.));
#294=DIRECTION('center_axis',(0.,1.,0.));
#295=DIRECTION('ref_axis',(1.,0.,0.));
#296=DIRECTION('center_axis',(0.,1.,0.));
#297=DIRECTION('ref_axis',(1.,0.,0.));
#298=DIRECTION('',(0.,-1.,0.));
#299=DIRECTION('center_axis',(0.,1.,0.));
#300=DIRECTION('ref_axis',(1.,0.,0.));
#301=DIRECTION('center_axis',(0.,1.,0.));
#302=DIRECTION('ref_axis',(1.,0.,0.));
#303=DIRECTION('center_axis',(0.,1.,0.));
#304=DIRECTION('ref_axis',(0.,0.,1.));
#305=DIRECTION('center_axis',(0.,-1.,0.));
#306=DIRECTION('ref_axis',(1.,0.,0.));
#307=DIRECTION('center_axis',(0.,-1.,0.));
#308=DIRECTION('ref_axis',(1.,0.,0.));
#309=DIRECTION('center_axis',(0.,1.,0.));
#310=DIRECTION('ref_axis',(1.,0.,0.));
#311=DIRECTION('',(0.,1.,0.));
#312=DIRECTION('center_axis',(0.,-1.,0.));
#313=DIRECTION('ref_axis',(1.,0.,0.));
#314=DIRECTION('center_axis',(0.,-1.,0.));
#315=DIRECTION('ref_axis',(1.,0.,0.));
#316=DIRECTION('',(0.,1.,0.));
#317=DIRECTION('center_axis',(0.,1.,0.));
#318=DIRECTION('ref_axis',(1.,0.,0.));
#319=DIRECTION('center_axis',(0.,1.,0.));
#320=DIRECTION('ref_axis',(1.,0.,0.));
#321=DIRECTION('center_axis',(0.,1.,0.));
#322=DIRECTION('ref_axis',(1.,0.,0.));
#323=DIRECTION('',(0.,1.,0.));
#324=DIRECTION('center_axis',(0.,1.,0.));
#325=DIRECTION('ref_axis',(1.,0.,0.));
#326=DIRECTION('center_axis',(0.,1.,0.));
#327=DIRECTION('ref_axis',(1.,0.,0.));
#328=DIRECTION('center_axis',(0.,1.,0.));
#329=DIRECTION('ref_axis',(1.,0.,0.));
#330=DIRECTION('center_axis',(0.,1.,0.));
#331=DIRECTION('ref_axis',(1.,0.,0.));
#332=DIRECTION('center_axis',(0.,1.,0.));
#333=DIRECTION('ref_axis',(1.,0.,0.));
#334=DIRECTION('',(0.,1.,0.));
#335=DIRECTION('center_axis',(0.,1.,0.));
#336=DIRECTION('ref_axis',(1.,0.,0.));
#337=DIRECTION('center_axis',(0.,1.,0.));
#338=DIRECTION('ref_axis',(1.,0.,0.));
#339=DIRECTION('center_axis',(0.,1.,0.));
#340=DIRECTION('ref_axis',(1.,0.,0.));
#341=DIRECTION('center_axis',(0.,1.,0.));
#342=DIRECTION('ref_axis',(1.,0.,0.));
#343=DIRECTION('center_axis',(0.,1.,0.));
#344=DIRECTION('ref_axis',(1.,0.,0.));
#345=DIRECTION('',(0.,1.,0.));
#346=DIRECTION('center_axis',(0.,1.,0.));
#347=DIRECTION('ref_axis',(1.,0.,0.));
#348=DIRECTION('center_axis',(0.,1.,0.));
#349=DIRECTION('ref_axis',(1.,0.,0.));
#350=DIRECTION('center_axis',(0.,1.,0.));
#351=DIRECTION('ref_axis',(1.,0.,0.));
#352=DIRECTION('center_axis',(0.,1.,0.));
#353=DIRECTION('ref_axis',(1.,0.,0.));
#354=DIRECTION('center_axis',(0.,1.,0.));
#355=DIRECTION('ref_axis',(1.,0.,0.));
#356=DIRECTION('',(0.,1.,0.));
#357=DIRECTION('center_axis',(0.,1.,0.));
#358=DIRECTION('ref_axis',(1.,0.,0.));
#359=DIRECTION('center_axis',(0.,1.,0.));
#360=DIRECTION('ref_axis',(1.,0.,0.));
#361=DIRECTION('center_axis',(0.,1.,0.));
#362=DIRECTION('ref_axis',(1.,0.,0.));
#363=DIRECTION('',(0.,0.,1.));
#364=DIRECTION('',(1.,0.,0.));
#365=CARTESIAN_POINT('',(0.,0.,0.));
#366=CARTESIAN_POINT('',(0.,0.,0.));
#367=CARTESIAN_POINT('Origin',(0.,0.225,0.));
#368=CARTESIAN_POINT('',(-0.2525,0.225,-3.09223316784707E-17));
#369=CARTESIAN_POINT('',(-3.09223316784707E-17,0.225,0.2525));
#370=CARTESIAN_POINT('Origin',(0.,0.225,0.));
#371=CARTESIAN_POINT('',(-4.01071826720758E-17,0.15,0.3275));
#372=CARTESIAN_POINT('Origin',(-4.01071826720758E-17,0.225,0.3275));
#373=CARTESIAN_POINT('Origin',(0.,0.15,0.));
#374=CARTESIAN_POINT('Origin',(0.,0.225,0.));
#375=CARTESIAN_POINT('Origin',(0.,0.15,0.));
#376=CARTESIAN_POINT('',(-0.2525,0.453,-3.09223316784707E-17));
#377=CARTESIAN_POINT('Origin',(0.,0.453,0.));
#378=CARTESIAN_POINT('',(-0.2525,0.15,3.09223316784707E-17));
#379=CARTESIAN_POINT('Origin',(0.,0.15,0.));
#380=CARTESIAN_POINT('',(-0.515625,0.15,6.31458505810354E-17));
#381=CARTESIAN_POINT('Origin',(0.,0.15,0.));
#382=CARTESIAN_POINT('Origin',(0.,0.453,0.));
#383=CARTESIAN_POINT('',(-0.0590551181102362,0.453,7.23216613669697E-18));
#384=CARTESIAN_POINT('Origin',(0.,0.453,0.));
#385=CARTESIAN_POINT('Origin',(0.,0.,0.));
#386=CARTESIAN_POINT('',(-0.0590551181102362,-0.03125,7.23216613669697E-18));
#387=CARTESIAN_POINT('Origin',(0.,-0.03125,0.));
#388=CARTESIAN_POINT('',(-0.0590551181102362,0.,-7.23216613669697E-18));
#389=CARTESIAN_POINT('Origin',(0.,0.,0.));
#390=CARTESIAN_POINT('',(-0.515625,-0.03125,6.31458505810354E-17));
#391=CARTESIAN_POINT('Origin',(0.,-0.03125,0.));
#392=CARTESIAN_POINT('',(-0.515625,0.,-6.31458505810354E-17));
#393=CARTESIAN_POINT('Origin',(0.,-0.03125,0.));
#394=CARTESIAN_POINT('Origin',(-0.3,-0.015748031496063,-5.54488650970023E-17));
#395=CARTESIAN_POINT('',(-0.46748031496063,-0.015748031496063,-3.49384419333297E-17));
#396=CARTESIAN_POINT('Origin',(-0.3,-0.015748031496063,-5.54488650970023E-17));
#397=CARTESIAN_POINT('',(-0.46748031496063,0.062992125984252,-3.49384419333297E-17));
#398=CARTESIAN_POINT('',(-0.46748031496063,-0.015748031496063,-3.49384419333297E-17));
#399=CARTESIAN_POINT('Origin',(-0.3,0.062992125984252,-5.54488650970023E-17));
#400=CARTESIAN_POINT('Origin',(-0.3,0.062992125984252,-6.55643518479423E-17));
#401=CARTESIAN_POINT('Origin',(-0.3,-0.015748031496063,-6.55643518479423E-17));
#402=CARTESIAN_POINT('Origin',(4.26354274173628E-17,-0.015748031496063,
-0.3));
#403=CARTESIAN_POINT('',(-0.16748031496063,-0.015748031496063,-0.3));
#404=CARTESIAN_POINT('Origin',(4.26354274173628E-17,-0.015748031496063,
-0.3));
#405=CARTESIAN_POINT('',(-0.16748031496063,0.062992125984252,-0.3));
#406=CARTESIAN_POINT('',(-0.16748031496063,-0.015748031496063,-0.3));
#407=CARTESIAN_POINT('Origin',(4.26354274173628E-17,0.062992125984252,-0.3));
#408=CARTESIAN_POINT('Origin',(4.37095678986282E-17,0.062992125984252,-0.3));
#409=CARTESIAN_POINT('Origin',(4.37095678986282E-17,-0.015748031496063,
-0.3));
#410=CARTESIAN_POINT('Origin',(0.,-0.015748031496063,0.3));
#411=CARTESIAN_POINT('',(-0.16748031496063,-0.015748031496063,0.3));
#412=CARTESIAN_POINT('Origin',(0.,-0.015748031496063,0.3));
#413=CARTESIAN_POINT('',(-0.16748031496063,0.062992125984252,0.3));
#414=CARTESIAN_POINT('',(-0.16748031496063,-0.015748031496063,0.3));
#415=CARTESIAN_POINT('Origin',(0.,0.062992125984252,0.3));
#416=CARTESIAN_POINT('Origin',(0.,0.062992125984252,0.3));
#417=CARTESIAN_POINT('Origin',(0.,-0.015748031496063,0.3));
#418=CARTESIAN_POINT('Origin',(0.3,-0.015748031496063,1.58540177213529E-17));
#419=CARTESIAN_POINT('',(0.13251968503937,-0.015748031496063,3.63644408850255E-17));
#420=CARTESIAN_POINT('Origin',(0.3,-0.015748031496063,1.58540177213529E-17));
#421=CARTESIAN_POINT('',(0.13251968503937,0.062992125984252,3.63644408850255E-17));
#422=CARTESIAN_POINT('',(0.13251968503937,-0.015748031496063,3.63644408850255E-17));
#423=CARTESIAN_POINT('Origin',(0.3,0.062992125984252,1.58540177213529E-17));
#424=CARTESIAN_POINT('Origin',(0.3,0.062992125984252,2.18547839493141E-17));
#425=CARTESIAN_POINT('Origin',(0.3,-0.015748031496063,2.18547839493141E-17));
#426=CARTESIAN_POINT('',(0.,0.,0.));
#427=UNCERTAINTY_MEASURE_WITH_UNIT(LENGTH_MEASURE(0.000393700787401575),
#434,'DISTANCE_ACCURACY_VALUE',
'Maximum model space distance between geometric entities at asserted c
onnectivities');
#428=UNCERTAINTY_MEASURE_WITH_UNIT(LENGTH_MEASURE(0.000393700787401575),
#434,'DISTANCE_ACCURACY_VALUE',
'Maximum model space distance between geometric entities at asserted c
onnectivities');
#429=UNCERTAINTY_MEASURE_WITH_UNIT(LENGTH_MEASURE(0.000393700787401575),
#434,'DISTANCE_ACCURACY_VALUE',
'Maximum model space distance between geometric entities at asserted c
onnectivities');
#430=(
GEOMETRIC_REPRESENTATION_CONTEXT(3)
GLOBAL_UNCERTAINTY_ASSIGNED_CONTEXT((#427))
GLOBAL_UNIT_ASSIGNED_CONTEXT((#434,#438,#439))
REPRESENTATION_CONTEXT('','3D')
);
#431=(
GEOMETRIC_REPRESENTATION_CONTEXT(3)
GLOBAL_UNCERTAINTY_ASSIGNED_CONTEXT((#428))
GLOBAL_UNIT_ASSIGNED_CONTEXT((#434,#438,#439))
REPRESENTATION_CONTEXT('','3D')
);
#432=(
GEOMETRIC_REPRESENTATION_CONTEXT(3)
GLOBAL_UNCERTAINTY_ASSIGNED_CONTEXT((#429))
GLOBAL_UNIT_ASSIGNED_CONTEXT((#434,#438,#439))
REPRESENTATION_CONTEXT('','3D')
);
#433=DIMENSIONAL_EXPONENTS(1.,0.,0.,0.,0.,0.,0.);
#434=(
CONVERSION_BASED_UNIT('inch',#437)
LENGTH_UNIT()
NAMED_UNIT(#433)
);
#435=(
LENGTH_UNIT()
NAMED_UNIT(*)
SI_UNIT(.MILLI.,.METRE.)
);
#436=(
LENGTH_UNIT()
NAMED_UNIT(*)
SI_UNIT($,.METRE.)
);
#437=LENGTH_MEASURE_WITH_UNIT(LENGTH_MEASURE(25.4),#435);
#438=(
NAMED_UNIT(*)
PLANE_ANGLE_UNIT()
SI_UNIT($,.RADIAN.)
);
#439=(
NAMED_UNIT(*)
SI_UNIT($,.STERADIAN.)
SOLID_ANGLE_UNIT()
);
#440=SHAPE_DEFINITION_REPRESENTATION(#442,#445);
#441=SHAPE_DEFINITION_REPRESENTATION(#443,#446);
#442=PRODUCT_DEFINITION_SHAPE('',$,#448);
#443=PRODUCT_DEFINITION_SHAPE('',$,#449);
#444=PRODUCT_DEFINITION_SHAPE($,$,#14);
#445=SHAPE_REPRESENTATION('',(#241,#279),#430);
#446=SHAPE_REPRESENTATION('',(#242),#431);
#447=PRODUCT_DEFINITION_CONTEXT('part definition',#455,'design');
#448=PRODUCT_DEFINITION('Circle Compass-Expo Edit for New Version',
'Circle Compass-Expo Edit for New Version v1',#450,#447);
#449=PRODUCT_DEFINITION('Bearing Cap','Bearing Cap',#451,#447);
#450=PRODUCT_DEFINITION_FORMATION('',$,#457);
#451=PRODUCT_DEFINITION_FORMATION('',$,#458);
#452=PRODUCT_RELATED_PRODUCT_CATEGORY(
'Circle Compass-Expo Edit for New Version v1',
'Circle Compass-Expo Edit for New Version v1',(#457));
#453=PRODUCT_RELATED_PRODUCT_CATEGORY('Bearing Cap','Bearing Cap',(#458));
#454=APPLICATION_PROTOCOL_DEFINITION('international standard',
'automotive_design',2009,#455);
#455=APPLICATION_CONTEXT(
'Core Data for Automotive Mechanical Design Process');
#456=PRODUCT_CONTEXT('part definition',#455,'mechanical');
#457=PRODUCT('Circle Compass-Expo Edit for New Version',
'Circle Compass-Expo Edit for New Version v1',$,(#456));
#458=PRODUCT('Bearing Cap','Bearing Cap',$,(#456));
#459=PRESENTATION_STYLE_ASSIGNMENT((#463));
#460=PRESENTATION_STYLE_ASSIGNMENT((#464));
#461=PRESENTATION_STYLE_ASSIGNMENT((#465));
#462=PRESENTATION_STYLE_ASSIGNMENT((#466));
#463=SURFACE_STYLE_USAGE(.BOTH.,#467);
#464=SURFACE_STYLE_USAGE(.BOTH.,#468);
#465=SURFACE_STYLE_USAGE(.BOTH.,#469);
#466=SURFACE_STYLE_USAGE(.BOTH.,#470);
#467=SURFACE_SIDE_STYLE('',(#471));
#468=SURFACE_SIDE_STYLE('',(#472));
#469=SURFACE_SIDE_STYLE('',(#473));
#470=SURFACE_SIDE_STYLE('',(#474));
#471=SURFACE_STYLE_FILL_AREA(#475);
#472=SURFACE_STYLE_FILL_AREA(#476);
#473=SURFACE_STYLE_FILL_AREA(#477);
#474=SURFACE_STYLE_FILL_AREA(#478);
#475=FILL_AREA_STYLE('Steel - Satin',(#479));
#476=FILL_AREA_STYLE('Steel - Satin',(#480));
#477=FILL_AREA_STYLE('Steel - Satin',(#481));
#478=FILL_AREA_STYLE('Steel - Satin (1)',(#482));
#479=FILL_AREA_STYLE_COLOUR('Steel - Satin',#483);
#480=FILL_AREA_STYLE_COLOUR('Steel - Satin',#484);
#481=FILL_AREA_STYLE_COLOUR('Steel - Satin',#485);
#482=FILL_AREA_STYLE_COLOUR('Steel - Satin (1)',#486);
#483=COLOUR_RGB('Steel - Satin',0.627450980392157,0.627450980392157,0.627450980392157);
#484=COLOUR_RGB('Steel - Satin',1.,1.,1.);
#485=COLOUR_RGB('Steel - Satin',0.,0.,0.);
#486=COLOUR_RGB('Steel - Satin (1)',0.301960784313725,0.301960784313725,
0.301960784313725);
ENDSEC;
END-ISO-10303-21;
