ISO-10303-21;
HEADER;
/* Generated by software containing ST-Developer
 * from STEP Tools, Inc. (www.steptools.com) 
 */

FILE_DESCRIPTION(
/* description */ (''),
/* implementation_level */ '2;1');

FILE_NAME(
/* name */ 'Expo Bearing Top.step',
/* time_stamp */ '2023-09-23T13:07:49-05:00',
/* author */ (''),
/* organization */ (''),
/* preprocessor_version */ 'ST-DEVELOPER v20',
/* originating_system */ 'Autodesk Translation Framework v12.9.0.99',
/* authorisation */ '');

FILE_SCHEMA (('AUTOMOTIVE_DESIGN { 1 0 10303 214 3 1 1 }'));
ENDSEC;

DATA;
#10=MECHANICAL_DESIGN_GEOMETRIC_PRESENTATION_REPRESENTATION('',(#17),#493);
#11=ITEM_DEFINED_TRANSFORMATION($,$,#113,#125);
#12=(
REPRESENTATION_RELATIONSHIP($,$,#507,#506)
REPRESENTATION_RELATIONSHIP_WITH_TRANSFORMATION(#11)
SHAPE_REPRESENTATION_RELATIONSHIP()
);
#13=CONTEXT_DEPENDENT_SHAPE_REPRESENTATION(#12,#505);
#14=NEXT_ASSEMBLY_USAGE_OCCURRENCE('Bearing Cap:1','Bearing Cap:1',
'Bearing Cap:1',#509,#510,'Bearing Cap:1');
#15=SHAPE_REPRESENTATION_RELATIONSHIP('SRR','None',#507,#16);
#16=ADVANCED_BREP_SHAPE_REPRESENTATION('',(#18),#492);
#17=STYLED_ITEM('',(#523),#18);
#18=MANIFOLD_SOLID_BREP('Top Cap',#99);
#19=LINE('',#484,#20);
#20=VECTOR('',#148,0.2525);
#21=CYLINDRICAL_SURFACE('',#122,0.2525);
#22=FACE_BOUND('',#37,.T.);
#23=FACE_BOUND('',#40,.T.);
#24=PLANE('',#120);
#25=PLANE('',#124);
#26=TOROIDAL_SURFACE('',#117,0.430269502732167,0.375);
#27=FACE_OUTER_BOUND('',#33,.T.);
#28=FACE_OUTER_BOUND('',#34,.T.);
#29=FACE_OUTER_BOUND('',#35,.T.);
#30=FACE_OUTER_BOUND('',#36,.T.);
#31=FACE_OUTER_BOUND('',#38,.T.);
#32=FACE_OUTER_BOUND('',#39,.T.);
#33=EDGE_LOOP('',(#69,#70,#71,#72));
#34=EDGE_LOOP('',(#73,#74,#75,#76));
#35=EDGE_LOOP('',(#77,#78,#79,#80,#81));
#36=EDGE_LOOP('',(#82,#83));
#37=EDGE_LOOP('',(#84));
#38=EDGE_LOOP('',(#85,#86,#87,#88));
#39=EDGE_LOOP('',(#89));
#40=EDGE_LOOP('',(#90));
#41=CIRCLE('',#114,0.125);
#42=CIRCLE('',#115,0.515625);
#43=CIRCLE('',#116,0.515625);
#44=CIRCLE('',#118,0.0590551181102362);
#45=CIRCLE('',#119,0.375);
#46=CIRCLE('',#121,0.2525);
#47=CIRCLE('',#123,0.2525);
#48=B_SPLINE_CURVE_WITH_KNOTS('',3,(#261,#262,#263,#264,#265,#266),
 .UNSPECIFIED.,.F.,.F.,(4,1,1,4),(-1.,-0.571428571428571,-0.285714285714286,
0.),.UNSPECIFIED.);
#49=B_SPLINE_CURVE_WITH_KNOTS('',3,(#268,#269,#270,#271,#272,#273,#274,
#275,#276,#277,#278,#279,#280,#281,#282,#283,#284,#285,#286,#287,#288,#289,
#290,#291,#292,#293,#294,#295,#296,#297,#298,#299,#300,#301,#302,#303,#304,
#305,#306,#307,#308,#309,#310,#311,#312,#313,#314,#315,#316,#317,#318,#319,
#320,#321,#322,#323,#324,#325,#326,#327,#328,#329,#330,#331,#332,#333,#334,
#335,#336,#337,#338,#339,#340,#341,#342,#343,#344,#345,#346,#347,#348,#349,
#350,#351,#352,#353,#354,#355,#356,#357,#358,#359,#360,#361,#362,#363,#364,
#365,#366,#367,#368,#369,#370,#371,#372,#373,#374,#375,#376,#377,#378,#379,
#380,#381,#382,#383,#384,#385,#386,#387,#388,#389,#390,#391,#392,#393,#394,
#395,#396,#397,#398,#399,#400,#401,#402,#403,#404,#405,#406,#407,#408,#409,
#410,#411,#412,#413,#414,#415,#416,#417,#418,#419,#420,#421,#422,#423,#424,
#425,#426,#427,#428,#429,#430,#431,#432,#433,#434,#435,#436,#437,#438,#439,
#440,#441,#442),.UNSPECIFIED.,.F.,.F.,(4,3,3,3,3,3,3,3,3,3,3,3,3,3,3,3,
3,3,3,3,3,3,3,3,3,3,3,3,3,3,3,3,3,3,3,3,3,3,3,3,3,3,3,3,3,3,3,3,3,3,3,3,
3,3,3,3,3,3,4),(0.,0.150743035531968,0.301287685443874,0.383978465896449,
0.442652727688364,0.584777028577872,0.727479539769546,0.767956931792896,
0.885548049899861,1.02443934983364,1.15193539768934,1.29219480796953,1.43127852179704,
1.47503076140913,1.53591386358579,1.6782175166547,1.77033116037234,1.91989232948224,
2.06070606282354,2.2012632442962,2.30387079537869,2.36072794622971,2.50818542840865,
2.65564291058759,2.68784926127514,2.82683524280815,2.96704369612447,3.07182772717159,
3.21502987594391,3.24580738599545,3.3878584943531,3.45580619306803,3.54128500130621,
3.6796831840449,3.81949658533105,3.83978465896448,3.98521841311822,4.12320846845013,
4.13065216727196,4.22376312486093,4.36582014514634,4.42586523420861,4.56871303456971,
4.60774159075738,4.74809429160855,4.86842218035637,4.99172005665383,5.13320613348472,
5.27435533145519,5.31117243456807,5.37569852255027,5.52074297293131,5.66618667237044,
5.75397021057028,5.75967698844672,5.89920879221938,5.9784825086612,6.11921426121349,
6.19648436098442),.UNSPECIFIED.);
#50=B_SPLINE_CURVE_WITH_KNOTS('',3,(#471,#472,#473,#474),.UNSPECIFIED.,
 .F.,.F.,(4,4),(6.19648436098442,6.19728802887568),.UNSPECIFIED.);
#51=VERTEX_POINT('',#259);
#52=VERTEX_POINT('',#260);
#53=VERTEX_POINT('',#267);
#54=VERTEX_POINT('',#443);
#55=VERTEX_POINT('',#476);
#56=VERTEX_POINT('',#480);
#57=VERTEX_POINT('',#483);
#58=EDGE_CURVE('',#51,#52,#48,.T.);
#59=EDGE_CURVE('',#51,#53,#49,.T.);
#60=EDGE_CURVE('',#53,#54,#41,.T.);
#61=EDGE_CURVE('',#52,#54,#42,.T.);
#62=EDGE_CURVE('',#54,#52,#43,.T.);
#63=EDGE_CURVE('',#53,#51,#50,.T.);
#64=EDGE_CURVE('',#55,#55,#44,.T.);
#65=EDGE_CURVE('',#55,#51,#45,.T.);
#66=EDGE_CURVE('',#56,#56,#46,.T.);
#67=EDGE_CURVE('',#56,#57,#19,.T.);
#68=EDGE_CURVE('',#57,#57,#47,.T.);
#69=ORIENTED_EDGE('',*,*,#58,.F.);
#70=ORIENTED_EDGE('',*,*,#59,.T.);
#71=ORIENTED_EDGE('',*,*,#60,.T.);
#72=ORIENTED_EDGE('',*,*,#61,.F.);
#73=ORIENTED_EDGE('',*,*,#58,.T.);
#74=ORIENTED_EDGE('',*,*,#62,.F.);
#75=ORIENTED_EDGE('',*,*,#60,.F.);
#76=ORIENTED_EDGE('',*,*,#63,.T.);
#77=ORIENTED_EDGE('',*,*,#64,.F.);
#78=ORIENTED_EDGE('',*,*,#65,.T.);
#79=ORIENTED_EDGE('',*,*,#63,.F.);
#80=ORIENTED_EDGE('',*,*,#59,.F.);
#81=ORIENTED_EDGE('',*,*,#65,.F.);
#82=ORIENTED_EDGE('',*,*,#62,.T.);
#83=ORIENTED_EDGE('',*,*,#61,.T.);
#84=ORIENTED_EDGE('',*,*,#66,.T.);
#85=ORIENTED_EDGE('',*,*,#66,.F.);
#86=ORIENTED_EDGE('',*,*,#67,.T.);
#87=ORIENTED_EDGE('',*,*,#68,.F.);
#88=ORIENTED_EDGE('',*,*,#67,.F.);
#89=ORIENTED_EDGE('',*,*,#68,.T.);
#90=ORIENTED_EDGE('',*,*,#64,.T.);
#91=B_SPLINE_SURFACE_WITH_KNOTS('',3,3,((#157,#158,#159,#160,#161,#162,
#163,#164,#165,#166,#167,#168,#169,#170,#171,#172,#173),(#174,#175,#176,
#177,#178,#179,#180,#181,#182,#183,#184,#185,#186,#187,#188,#189,#190),
(#191,#192,#193,#194,#195,#196,#197,#198,#199,#200,#201,#202,#203,#204,
#205,#206,#207),(#208,#209,#210,#211,#212,#213,#214,#215,#216,#217,#218,
#219,#220,#221,#222,#223,#224),(#225,#226,#227,#228,#229,#230,#231,#232,
#233,#234,#235,#236,#237,#238,#239,#240,#241),(#242,#243,#244,#245,#246,
#247,#248,#249,#250,#251,#252,#253,#254,#255,#256,#257,#258)),
 .UNSPECIFIED.,.F.,.F.,.F.,(4,1,1,4),(4,1,1,1,1,1,1,1,1,1,1,1,1,1,4),(0.,
0.285714285714286,0.571428571428571,1.),(-12.3937723898601,-11.9511663640755,
-11.5085603382909,-11.0659543125063,-10.6233482867217,-10.3282776028653,
-9.73813623515249,-9.44306555129609,-8.85292418358329,-8.55785349972689,
-7.96771213201409,-7.67264144815769,-7.08250008044489,-6.63989405466028,
-6.19728802887568),.UNSPECIFIED.);
#92=B_SPLINE_SURFACE_WITH_KNOTS('',3,3,((#446,#447,#448,#449),(#450,#451,
#452,#453),(#454,#455,#456,#457),(#458,#459,#460,#461),(#462,#463,#464,
#465),(#466,#467,#468,#469)),.UNSPECIFIED.,.F.,.F.,.F.,(4,1,1,4),(4,4),
(0.,0.285714285714286,0.571428571428571,1.),(-6.19728802887568,-6.19648436098442),
 .UNSPECIFIED.);
#93=ADVANCED_FACE('',(#27),#91,.F.);
#94=ADVANCED_FACE('',(#28),#92,.F.);
#95=ADVANCED_FACE('',(#29),#26,.T.);
#96=ADVANCED_FACE('',(#30,#22),#24,.F.);
#97=ADVANCED_FACE('',(#31),#21,.T.);
#98=ADVANCED_FACE('',(#32,#23),#25,.F.);
#99=CLOSED_SHELL('',(#93,#94,#95,#96,#97,#98));
#100=DERIVED_UNIT_ELEMENT(#102,1.);
#101=DERIVED_UNIT_ELEMENT(#497,-3.);
#102=(
MASS_UNIT()
NAMED_UNIT(*)
SI_UNIT(.KILO.,.GRAM.)
);
#103=DERIVED_UNIT((#100,#101));
#104=MEASURE_REPRESENTATION_ITEM('density measure',
POSITIVE_RATIO_MEASURE(7850.),#103);
#105=PROPERTY_DEFINITION_REPRESENTATION(#110,#107);
#106=PROPERTY_DEFINITION_REPRESENTATION(#111,#108);
#107=REPRESENTATION('material name',(#109),#492);
#108=REPRESENTATION('density',(#104),#492);
#109=DESCRIPTIVE_REPRESENTATION_ITEM('Steel','Steel');
#110=PROPERTY_DEFINITION('material property','material name',#510);
#111=PROPERTY_DEFINITION('material property','density of part',#510);
#112=AXIS2_PLACEMENT_3D('',#155,#126,#127);
#113=AXIS2_PLACEMENT_3D('',#156,#128,#129);
#114=AXIS2_PLACEMENT_3D('',#444,#130,#131);
#115=AXIS2_PLACEMENT_3D('',#445,#132,#133);
#116=AXIS2_PLACEMENT_3D('',#470,#134,#135);
#117=AXIS2_PLACEMENT_3D('',#475,#136,#137);
#118=AXIS2_PLACEMENT_3D('',#477,#138,#139);
#119=AXIS2_PLACEMENT_3D('',#478,#140,#141);
#120=AXIS2_PLACEMENT_3D('',#479,#142,#143);
#121=AXIS2_PLACEMENT_3D('',#481,#144,#145);
#122=AXIS2_PLACEMENT_3D('',#482,#146,#147);
#123=AXIS2_PLACEMENT_3D('',#485,#149,#150);
#124=AXIS2_PLACEMENT_3D('',#486,#151,#152);
#125=AXIS2_PLACEMENT_3D('',#487,#153,#154);
#126=DIRECTION('axis',(0.,0.,1.));
#127=DIRECTION('refdir',(1.,0.,0.));
#128=DIRECTION('axis',(0.,0.,1.));
#129=DIRECTION('refdir',(1.,0.,0.));
#130=DIRECTION('center_axis',(-0.000809931099253609,-1.90187392527686E-16,
-0.999999672005753));
#131=DIRECTION('ref_axis',(-0.158418468502656,0.987372053672934,0.000128308086420556));
#132=DIRECTION('center_axis',(0.,-1.,0.));
#133=DIRECTION('ref_axis',(1.,0.,0.));
#134=DIRECTION('center_axis',(0.,-1.,0.));
#135=DIRECTION('ref_axis',(1.,0.,0.));
#136=DIRECTION('center_axis',(0.,1.,0.));
#137=DIRECTION('ref_axis',(-1.,0.,0.));
#138=DIRECTION('center_axis',(0.,1.,0.));
#139=DIRECTION('ref_axis',(1.,0.,0.));
#140=DIRECTION('center_axis',(1.22464679914735E-16,0.,-1.));
#141=DIRECTION('ref_axis',(1.,0.,1.22464679914735E-16));
#142=DIRECTION('center_axis',(0.,1.,0.));
#143=DIRECTION('ref_axis',(0.,0.,1.));
#144=DIRECTION('center_axis',(0.,1.,0.));
#145=DIRECTION('ref_axis',(1.,0.,0.));
#146=DIRECTION('center_axis',(0.,1.,0.));
#147=DIRECTION('ref_axis',(1.,0.,0.));
#148=DIRECTION('',(0.,-1.,0.));
#149=DIRECTION('center_axis',(0.,-1.,0.));
#150=DIRECTION('ref_axis',(1.,0.,0.));
#151=DIRECTION('center_axis',(0.,1.,0.));
#152=DIRECTION('ref_axis',(0.,0.,1.));
#153=DIRECTION('',(0.,0.,1.));
#154=DIRECTION('',(1.,0.,0.));
#155=CARTESIAN_POINT('',(0.,0.,0.));
#156=CARTESIAN_POINT('',(0.,0.,0.));
#157=CARTESIAN_POINT('Ctrl Pts',(0.515624830877967,0.649850393700787,-0.000417620723052658));
#158=CARTESIAN_POINT('Ctrl Pts',(0.515562735514152,0.649850393700787,-0.0770850600958238));
#159=CARTESIAN_POINT('Ctrl Pts',(0.480767555748641,0.649850393700788,-0.230556279123516));
#160=CARTESIAN_POINT('Ctrl Pts',(0.332944713416676,0.649850393700787,-0.416623852489232));
#161=CARTESIAN_POINT('Ctrl Pts',(0.119054914251203,0.649850393700788,-0.519828155160509));
#162=CARTESIAN_POINT('Ctrl Pts',(-0.0919047549783964,0.649850393700787,
-0.519837772462803));
#163=CARTESIAN_POINT('Ctrl Pts',(-0.310002498606421,0.649850393700788,-0.434554691528321));
#164=CARTESIAN_POINT('Ctrl Pts',(-0.456092452717988,0.649850393700787,-0.277501954799702));
#165=CARTESIAN_POINT('Ctrl Pts',(-0.533115248063067,0.649850393700787,-0.0283389998584201));
#166=CARTESIAN_POINT('Ctrl Pts',(-0.501258693598412,0.649850393700787,0.183671922551942));
#167=CARTESIAN_POINT('Ctrl Pts',(-0.354490963400575,0.649850393700787,0.399141957919223));
#168=CARTESIAN_POINT('Ctrl Pts',(-0.168789910487588,0.649850393700788,0.506475570395825));
#169=CARTESIAN_POINT('Ctrl Pts',(0.0911181771576622,0.649850393700788,0.526090426035315));
#170=CARTESIAN_POINT('Ctrl Pts',(0.315927294606091,0.649850393700787,0.437903567841258));
#171=CARTESIAN_POINT('Ctrl Pts',(0.480507231585297,0.649850393700788,0.231386184353232));
#172=CARTESIAN_POINT('Ctrl Pts',(0.515625,0.649850393700787,0.0766640845764491));
#173=CARTESIAN_POINT('Ctrl Pts',(0.515625,0.649850393700787,1.74838271594513E-16));
#174=CARTESIAN_POINT('Ctrl Pts',(0.515112308860091,0.670137093054182,-0.000417205615395175));
#175=CARTESIAN_POINT('Ctrl Pts',(0.515050272352425,0.670137093054182,-0.077011976918556));
#176=CARTESIAN_POINT('Ctrl Pts',(0.480290790067943,0.670137093054182,-0.230325816284187));
#177=CARTESIAN_POINT('Ctrl Pts',(0.332614920262186,0.670137093054182,-0.416211898579064));
#178=CARTESIAN_POINT('Ctrl Pts',(0.118937242429128,0.670137093054183,-0.519311279096203));
#179=CARTESIAN_POINT('Ctrl Pts',(-0.0918125287409987,0.670137093054181,
-0.519323482299397));
#180=CARTESIAN_POINT('Ctrl Pts',(-0.309696258630306,0.670137093054183,-0.434121741536027));
#181=CARTESIAN_POINT('Ctrl Pts',(-0.455640403488433,0.670137093054182,-0.277228287307646));
#182=CARTESIAN_POINT('Ctrl Pts',(-0.532585865791959,0.670137093054182,-0.0283103774787354));
#183=CARTESIAN_POINT('Ctrl Pts',(-0.500762874431503,0.670137093054181,0.18348842465104));
#184=CARTESIAN_POINT('Ctrl Pts',(-0.354137429069701,0.670137093054182,0.398747274304652));
#185=CARTESIAN_POINT('Ctrl Pts',(-0.168623550180919,0.670137093054182,0.505973459449441));
#186=CARTESIAN_POINT('Ctrl Pts',(0.0910276337197474,0.670137093054182,0.525568435728099));
#187=CARTESIAN_POINT('Ctrl Pts',(0.31561476636695,0.670137093054182,0.437469338096612));
#188=CARTESIAN_POINT('Ctrl Pts',(0.480030849211561,0.670137093054182,0.231155337874958));
#189=CARTESIAN_POINT('Ctrl Pts',(0.51511247781402,0.670137093054182,0.076591419686632));
#190=CARTESIAN_POINT('Ctrl Pts',(0.51511247781402,0.670137093054182,1.74018174560658E-16));
#191=CARTESIAN_POINT('Ctrl Pts',(0.504003600537525,0.710375149250174,-0.000408208324101132));
#192=CARTESIAN_POINT('Ctrl Pts',(0.503942904268705,0.710375149250174,-0.0753482235534592));
#193=CARTESIAN_POINT('Ctrl Pts',(0.469932106342176,0.710375149250173,-0.225359777355722));
#194=CARTESIAN_POINT('Ctrl Pts',(0.325440923308395,0.710375149250174,-0.407234237938106));
#195=CARTESIAN_POINT('Ctrl Pts',(0.116371734249048,0.710375149250174,-0.508112163882526));
#196=CARTESIAN_POINT('Ctrl Pts',(-0.0898332636397579,0.710375149250173,
-0.508121944567269));
#197=CARTESIAN_POINT('Ctrl Pts',(-0.303015893305379,0.710375149250174,-0.424760484270096));
#198=CARTESIAN_POINT('Ctrl Pts',(-0.445813162315033,0.710375149250173,-0.271247890846252));
#199=CARTESIAN_POINT('Ctrl Pts',(-0.521099892938034,0.710375149250174,-0.0277002247168031));
#200=CARTESIAN_POINT('Ctrl Pts',(-0.489961604333958,0.710375149250173,0.179532160619861));
#201=CARTESIAN_POINT('Ctrl Pts',(-0.346501220189755,0.710375149250174,0.390146337365435));
#202=CARTESIAN_POINT('Ctrl Pts',(-0.164985905067243,0.710375149250175,0.495060740342655));
#203=CARTESIAN_POINT('Ctrl Pts',(0.089064545785267,0.710375149250173,0.514233457374479));
#204=CARTESIAN_POINT('Ctrl Pts',(0.308807096901404,0.710375149250174,0.428034183201103));
#205=CARTESIAN_POINT('Ctrl Pts',(0.469677667646011,0.710375149250173,0.226171042686003));
#206=CARTESIAN_POINT('Ctrl Pts',(0.504003765847861,0.710375149250174,0.0749367360212699));
#207=CARTESIAN_POINT('Ctrl Pts',(0.504003765847861,0.710375149250174,1.64443553884591E-16));
#208=CARTESIAN_POINT('Ctrl Pts',(0.453834387646743,0.763743125060458,-0.000367574705028214));
#209=CARTESIAN_POINT('Ctrl Pts',(0.45377973186503,0.763743125060458,-0.067849566490352));
#210=CARTESIAN_POINT('Ctrl Pts',(0.423154921174691,0.763743125060457,-0.202926566150288));
#211=CARTESIAN_POINT('Ctrl Pts',(0.293046607437454,0.763743125060457,-0.366698564325366));
#212=CARTESIAN_POINT('Ctrl Pts',(0.104788234639436,0.763743125060458,-0.457533898890598));
#213=CARTESIAN_POINT('Ctrl Pts',(-0.0808907390945961,0.763743125060457,
-0.457543886294446));
#214=CARTESIAN_POINT('Ctrl Pts',(-0.272854136443206,0.763743125060458,-0.382478780940204));
#215=CARTESIAN_POINT('Ctrl Pts',(-0.401436896398302,0.763743125060458,-0.244248486377732));
#216=CARTESIAN_POINT('Ctrl Pts',(-0.469229130251762,0.763743125060458,-0.0249426997595484));
#217=CARTESIAN_POINT('Ctrl Pts',(-0.441191253043157,0.763743125060457,0.161660858478258));
#218=CARTESIAN_POINT('Ctrl Pts',(-0.31200947622853,0.763743125060458,0.35131156853582));
#219=CARTESIAN_POINT('Ctrl Pts',(-0.14856362371271,0.763743125060458,0.445782310932262));
#220=CARTESIAN_POINT('Ctrl Pts',(0.0801989501895415,0.763743125060457,0.463046375329555));
#221=CARTESIAN_POINT('Ctrl Pts',(0.278068694150964,0.763743125060458,0.385427543151472));
#222=CARTESIAN_POINT('Ctrl Pts',(0.422925866296537,0.763743125060457,0.203657277683045));
#223=CARTESIAN_POINT('Ctrl Pts',(0.45383453650186,0.763743125060457,0.0674790389237356));
#224=CARTESIAN_POINT('Ctrl Pts',(0.45383453650186,0.763743125060457,1.23837595494418E-16));
#225=CARTESIAN_POINT('Ctrl Pts',(0.400917793152958,0.77493713536982,-0.000324715895423656));
#226=CARTESIAN_POINT('Ctrl Pts',(0.400869508918588,0.77493713536982,-0.0599399332607847));
#227=CARTESIAN_POINT('Ctrl Pts',(0.373816005464326,0.77493713536982,-0.179264982234054));
#228=CARTESIAN_POINT('Ctrl Pts',(0.258878196374978,0.77493713536982,-0.323942860670401));
#229=CARTESIAN_POINT('Ctrl Pts',(0.0925703332803308,0.774937135369821,-0.404185868199771));
#230=CARTESIAN_POINT('Ctrl Pts',(-0.0714585834896914,0.774937135369819,
-0.404195829766837));
#231=CARTESIAN_POINT('Ctrl Pts',(-0.241040474080955,0.774937135369821,-0.33788172911779));
#232=CARTESIAN_POINT('Ctrl Pts',(-0.354630361967363,0.77493713536982,-0.215770328970525));
#233=CARTESIAN_POINT('Ctrl Pts',(-0.414517755855889,0.774937135369821,-0.0220342090377239));
#234=CARTESIAN_POINT('Ctrl Pts',(-0.389749897344391,0.77493713536982,0.14281097018773));
#235=CARTESIAN_POINT('Ctrl Pts',(-0.275628995508532,0.77493713536982,0.310349925123566));
#236=CARTESIAN_POINT('Ctrl Pts',(-0.131241887568497,0.774937135369821,0.393805157536779));
#237=CARTESIAN_POINT('Ctrl Pts',(0.070847851684355,0.77493713536982,0.409056083031347));
#238=CARTESIAN_POINT('Ctrl Pts',(0.245646844946349,0.77493713536982,0.340487567799642));
#239=CARTESIAN_POINT('Ctrl Pts',(0.373613712777517,0.77493713536982,0.179910687194769));
#240=CARTESIAN_POINT('Ctrl Pts',(0.40091792465173,0.77493713536982,0.059612608736304));
#241=CARTESIAN_POINT('Ctrl Pts',(0.40091792465173,0.77493713536982,8.19337448378233E-17));
#242=CARTESIAN_POINT('Ctrl Pts',(0.370862435917749,0.770114913828138,-0.00030037311891539));
#243=CARTESIAN_POINT('Ctrl Pts',(0.370817773914478,0.770114913828138,-0.0554433212832787));
#244=CARTESIAN_POINT('Ctrl Pts',(0.34579138970396,0.770114913828137,-0.165827280168589));
#245=CARTESIAN_POINT('Ctrl Pts',(0.239470017829438,0.770114913828138,-0.299656121161782));
#246=CARTESIAN_POINT('Ctrl Pts',(0.0856300799788842,0.770114913828138,-0.373885671008508));
#247=CARTESIAN_POINT('Ctrl Pts',(-0.0661023660277886,0.770114913828137,
-0.373892588239682));
#248=CARTESIAN_POINT('Ctrl Pts',(-0.22296886202708,0.770114913828138,-0.312552851974311));
#249=CARTESIAN_POINT('Ctrl Pts',(-0.328043856481238,0.770114913828137,-0.199592891509351));
#250=CARTESIAN_POINT('Ctrl Pts',(-0.383442393929933,0.770114913828138,-0.020382785873739));
#251=CARTESIAN_POINT('Ctrl Pts',(-0.360529611842632,0.770114913828137,0.132105772507748));
#252=CARTESIAN_POINT('Ctrl Pts',(-0.254967127889698,0.770114913828138,0.287082293028546));
#253=CARTESIAN_POINT('Ctrl Pts',(-0.121401906217703,0.770114913828138,0.364281843157166));
#254=CARTESIAN_POINT('Ctrl Pts',(0.0655366210342027,0.770114913828138,0.378389800545969));
#255=CARTESIAN_POINT('Ctrl Pts',(0.227230263234258,0.770114913828137,0.314961526562171));
#256=CARTESIAN_POINT('Ctrl Pts',(0.345604151914851,0.770114913828138,0.166424188340253));
#257=CARTESIAN_POINT('Ctrl Pts',(0.370862557558534,0.770114913828138,0.0551405352318484));
#258=CARTESIAN_POINT('Ctrl Pts',(0.370862557558534,0.770114913828138,5.83628787160119E-17));
#259=CARTESIAN_POINT('',(0.370862557558534,0.770114913828138,4.5417564403766E-17));
#260=CARTESIAN_POINT('',(0.515625,0.649850393700787,-5.46369598732853E-17));
#261=CARTESIAN_POINT('Ctrl Pts',(0.370862557558534,0.770114913828138,5.83628787160119E-17));
#262=CARTESIAN_POINT('Ctrl Pts',(0.40091792465173,0.77493713536982,8.19337448378233E-17));
#263=CARTESIAN_POINT('Ctrl Pts',(0.45383453650186,0.763743125060457,1.23837595494418E-16));
#264=CARTESIAN_POINT('Ctrl Pts',(0.504003765847861,0.710375149250174,1.64443553884591E-16));
#265=CARTESIAN_POINT('Ctrl Pts',(0.51511247781402,0.670137093054182,1.74018174560658E-16));
#266=CARTESIAN_POINT('Ctrl Pts',(0.515625,0.649850393700787,1.74838271594513E-16));
#267=CARTESIAN_POINT('',(0.370862435917749,0.770114913828138,-0.000300373118915414));
#268=CARTESIAN_POINT('Ctrl Pts',(0.370862557558534,0.770114913828138,8.8037216405823E-17));
#269=CARTESIAN_POINT('Ctrl Pts',(0.370862557558534,0.770114913828138,0.0187797977828494));
#270=CARTESIAN_POINT('Ctrl Pts',(0.369405338170244,0.770116843416054,0.0376945143307234));
#271=CARTESIAN_POINT('Ctrl Pts',(0.366516520768574,0.770118806232506,0.0564221424067144));
#272=CARTESIAN_POINT('Ctrl Pts',(0.363631505199801,0.770120766465791,0.0751251239569468));
#273=CARTESIAN_POINT('Ctrl Pts',(0.359318769577178,0.770122759751148,0.0936400806196002));
#274=CARTESIAN_POINT('Ctrl Pts',(0.353654691123919,0.770122907187166,0.111646584861197));
#275=CARTESIAN_POINT('Ctrl Pts',(0.350543540590714,0.770122988170445,0.121537151479349));
#276=CARTESIAN_POINT('Ctrl Pts',(0.347025568135057,0.7701225125627,0.131274445650058));
#277=CARTESIAN_POINT('Ctrl Pts',(0.343119727838291,0.770121167264375,0.140807807141047));
#278=CARTESIAN_POINT('Ctrl Pts',(0.340348290746566,0.770120212691378,0.147572321211635));
#279=CARTESIAN_POINT('Ctrl Pts',(0.337369032091859,0.770119403544579,0.154274718925983));
#280=CARTESIAN_POINT('Ctrl Pts',(0.334184047581899,0.770118717854589,0.160894168150821));
#281=CARTESIAN_POINT('Ctrl Pts',(0.3264691878973,0.770117056935346,0.176928193371115));
#282=CARTESIAN_POINT('Ctrl Pts',(0.317543841640483,0.770116120594453,0.192474068146757));
#283=CARTESIAN_POINT('Ctrl Pts',(0.307551086397659,0.770115593395731,0.207296415290636));
#284=CARTESIAN_POINT('Ctrl Pts',(0.297517677206197,0.770115064052185,0.222179064816072));
#285=CARTESIAN_POINT('Ctrl Pts',(0.286408896832581,0.770114947013758,0.236331253358526));
#286=CARTESIAN_POINT('Ctrl Pts',(0.274412982927013,0.770114921161194,0.249542815853779));
#287=CARTESIAN_POINT('Ctrl Pts',(0.271010356681831,0.770114913828146,0.253290259328289));
#288=CARTESIAN_POINT('Ctrl Pts',(0.267536582479682,0.770114913828137,0.256962248727011));
#289=CARTESIAN_POINT('Ctrl Pts',(0.263996455972652,0.770114913828137,0.26055457275588));
#290=CARTESIAN_POINT('Ctrl Pts',(0.253712012894857,0.770114913828137,0.270990655172297));
#291=CARTESIAN_POINT('Ctrl Pts',(0.242749661976763,0.770116027978067,0.280881183067611));
#292=CARTESIAN_POINT('Ctrl Pts',(0.231198808370032,0.770117678676006,0.290084801992382));
#293=CARTESIAN_POINT('Ctrl Pts',(0.217555659987649,0.770119628377532,0.300955543057993));
#294=CARTESIAN_POINT('Ctrl Pts',(0.203091155587067,0.770122325830776,0.310866326982892));
#295=CARTESIAN_POINT('Ctrl Pts',(0.188036507894591,0.770124822597486,0.319695634812526));
#296=CARTESIAN_POINT('Ctrl Pts',(0.174217009599407,0.770127114518493,0.32780054746088));
#297=CARTESIAN_POINT('Ctrl Pts',(0.15990134562729,0.770129237583028,0.334994308352303));
#298=CARTESIAN_POINT('Ctrl Pts',(0.145287318832239,0.770130464240539,0.34121663256676));
#299=CARTESIAN_POINT('Ctrl Pts',(0.129210312410735,0.770131813696167,0.348061860631239));
#300=CARTESIAN_POINT('Ctrl Pts',(0.112532200333691,0.770130108987934,0.353819330562132));
#301=CARTESIAN_POINT('Ctrl Pts',(0.0955001113037627,0.770127396999795,0.358375968952453));
#302=CARTESIAN_POINT('Ctrl Pts',(0.0786107903534529,0.770124707744355,0.362894412232863));
#303=CARTESIAN_POINT('Ctrl Pts',(0.0613745694383086,0.770121025351571,0.366231838579964));
#304=CARTESIAN_POINT('Ctrl Pts',(0.0440421303939128,0.77011835591014,0.368327663074004));
#305=CARTESIAN_POINT('Ctrl Pts',(0.0385897808321757,0.770117516170979,0.368986956767886));
#306=CARTESIAN_POINT('Ctrl Pts',(0.0331279126831933,0.770116776856204,0.369523769476101));
#307=CARTESIAN_POINT('Ctrl Pts',(0.0276642523309573,0.770116200809593,0.369937291079776));
#308=CARTESIAN_POINT('Ctrl Pts',(0.0200613365846298,0.770115399216236,0.370512723978115));
#309=CARTESIAN_POINT('Ctrl Pts',(0.0124549875898417,0.770114913828138,0.370849353709753));
#310=CARTESIAN_POINT('Ctrl Pts',(0.00486828034102427,0.770114913828138,
0.370953031475294));
#311=CARTESIAN_POINT('Ctrl Pts',(-0.0128643271916581,0.770114913828138,
0.371195360204467));
#312=CARTESIAN_POINT('Ctrl Pts',(-0.0307487933726314,0.770114913917597,
0.370148446345183));
#313=CARTESIAN_POINT('Ctrl Pts',(-0.0484911394345771,0.770115649173524,
0.367803492991744));
#314=CARTESIAN_POINT('Ctrl Pts',(-0.0599758210194823,0.770116125107213,
0.366285596626648));
#315=CARTESIAN_POINT('Ctrl Pts',(-0.0714006911367345,0.770116909127733,
0.364224904712871));
#316=CARTESIAN_POINT('Ctrl Pts',(-0.0826866361402398,0.770118199534931,
0.36163064911405));
#317=CARTESIAN_POINT('Ctrl Pts',(-0.101011165071138,0.770120294716507,0.357418462030028));
#318=CARTESIAN_POINT('Ctrl Pts',(-0.118967546470145,0.770123726824227,0.35179707633112));
#319=CARTESIAN_POINT('Ctrl Pts',(-0.136293254915266,0.770129327599053,0.344938435628553));
#320=CARTESIAN_POINT('Ctrl Pts',(-0.152605628664816,0.770134600799426,0.338480938614302));
#321=CARTESIAN_POINT('Ctrl Pts',(-0.168567911778465,0.770136342431264,0.330806750504874));
#322=CARTESIAN_POINT('Ctrl Pts',(-0.183933296249714,0.770136026947493,0.322023087712395));
#323=CARTESIAN_POINT('Ctrl Pts',(-0.199270686163864,0.77013571203851,0.313255428082743));
#324=CARTESIAN_POINT('Ctrl Pts',(-0.214012363588023,0.770133343497112,0.303383024425476));
#325=CARTESIAN_POINT('Ctrl Pts',(-0.227939476556622,0.770130361226892,0.292556279172572));
#326=CARTESIAN_POINT('Ctrl Pts',(-0.238106349144595,0.770128184152476,0.284652692853075));
#327=CARTESIAN_POINT('Ctrl Pts',(-0.247839646073966,0.770125679759597,0.276241484374381));
#328=CARTESIAN_POINT('Ctrl Pts',(-0.257067593402782,0.770123412047882,0.26739263414119));
#329=CARTESIAN_POINT('Ctrl Pts',(-0.262181006477985,0.770122155457839,0.262489287289435));
#330=CARTESIAN_POINT('Ctrl Pts',(-0.267167126225574,0.770121084168924,0.257426267506267));
#331=CARTESIAN_POINT('Ctrl Pts',(-0.27201081080384,0.770120186389219,0.252210884433581));
#332=CARTESIAN_POINT('Ctrl Pts',(-0.284572775687582,0.770117858021848,0.238684929562716));
#333=CARTESIAN_POINT('Ctrl Pts',(-0.296173964068673,0.770116697247338,0.224131310723735));
#334=CARTESIAN_POINT('Ctrl Pts',(-0.306616122942254,0.770116491928185,0.208797328481426));
#335=CARTESIAN_POINT('Ctrl Pts',(-0.317058281815835,0.770116286609032,0.193463346239118));
#336=CARTESIAN_POINT('Ctrl Pts',(-0.326340568523617,0.770117036471845,0.177350217078728));
#337=CARTESIAN_POINT('Ctrl Pts',(-0.334309308374487,0.770118523706354,0.160735221508869));
#338=CARTESIAN_POINT('Ctrl Pts',(-0.336049769600208,0.770118848534877,0.157106322072314));
#339=CARTESIAN_POINT('Ctrl Pts',(-0.337727767325272,0.770119208525605,0.153453555444867));
#340=CARTESIAN_POINT('Ctrl Pts',(-0.339343061687921,0.770119601391606,0.149779968911097));
#341=CARTESIAN_POINT('Ctrl Pts',(-0.346313838185871,0.770121296798431,0.133926666092164));
#342=CARTESIAN_POINT('Ctrl Pts',(-0.352211452806899,0.770124792122137,0.117478399842859));
#343=CARTESIAN_POINT('Ctrl Pts',(-0.356937843463822,0.770127897839876,0.100663763991355));
#344=CARTESIAN_POINT('Ctrl Pts',(-0.36170580578971,0.770131030874415,0.0837012325201033));
#345=CARTESIAN_POINT('Ctrl Pts',(-0.365281398928923,0.770133768557721,0.0663669019256101));
#346=CARTESIAN_POINT('Ctrl Pts',(-0.367610148944477,0.770133883485282,0.0489207838117989));
#347=CARTESIAN_POINT('Ctrl Pts',(-0.369350527703097,0.770133969375775,0.0358825215754636));
#348=CARTESIAN_POINT('Ctrl Pts',(-0.370395451115344,0.770132592349862,0.0227824616510478));
#349=CARTESIAN_POINT('Ctrl Pts',(-0.370740899313047,0.770128809192831,0.00973266490111202));
#350=CARTESIAN_POINT('Ctrl Pts',(-0.371213002969552,0.770123638975474,-0.00810172185570836));
#351=CARTESIAN_POINT('Ctrl Pts',(-0.370424214290136,0.770120385833403,-0.026089458002913));
#352=CARTESIAN_POINT('Ctrl Pts',(-0.368315971333191,0.770118345813747,-0.0439619671326456));
#353=CARTESIAN_POINT('Ctrl Pts',(-0.367862860333428,0.770117907365539,-0.047803189726736));
#354=CARTESIAN_POINT('Ctrl Pts',(-0.367348990143275,0.770117524869222,-0.0516390617144895));
#355=CARTESIAN_POINT('Ctrl Pts',(-0.366774095157444,0.770117191219625,-0.0554668913307977));
#356=CARTESIAN_POINT('Ctrl Pts',(-0.364120713847848,0.770115651286897,-0.0731339293299825));
#357=CARTESIAN_POINT('Ctrl Pts',(-0.36016335601177,0.770115152338873,-0.0906286672618392));
#358=CARTESIAN_POINT('Ctrl Pts',(-0.354994576591834,0.770114991001888,-0.107668504725006));
#359=CARTESIAN_POINT('Ctrl Pts',(-0.352522180066314,0.770114913829123,-0.115819217207895));
#360=CARTESIAN_POINT('Ctrl Pts',(-0.349773352104672,0.770114913828138,-0.123866030064124));
#361=CARTESIAN_POINT('Ctrl Pts',(-0.346762110476889,0.770114913828138,-0.131779691537577));
#362=CARTESIAN_POINT('Ctrl Pts',(-0.342973941774665,0.770114913828138,-0.141735147930427));
#363=CARTESIAN_POINT('Ctrl Pts',(-0.338742713314696,0.770116055573635,-0.151572255724437));
#364=CARTESIAN_POINT('Ctrl Pts',(-0.334076964889553,0.770117836037902,-0.161224782083934));
#365=CARTESIAN_POINT('Ctrl Pts',(-0.326522681945452,0.77012071877602,-0.176853124763554));
#366=CARTESIAN_POINT('Ctrl Pts',(-0.317826742948932,0.770125273223784,-0.191996386810999));
#367=CARTESIAN_POINT('Ctrl Pts',(-0.308124716077208,0.770129373319644,-0.206443614154569));
#368=CARTESIAN_POINT('Ctrl Pts',(-0.298323479171759,0.770133515341861,-0.221038574536908));
#369=CARTESIAN_POINT('Ctrl Pts',(-0.287496079726992,0.770137194943781,-0.234922183932153));
#370=CARTESIAN_POINT('Ctrl Pts',(-0.275828722288281,0.770138248642669,-0.247901273044191));
#371=CARTESIAN_POINT('Ctrl Pts',(-0.274135692831543,0.770138401543038,-0.249784645547668));
#372=CARTESIAN_POINT('Ctrl Pts',(-0.272425046169513,0.770138499159912,-0.251649028923592));
#373=CARTESIAN_POINT('Ctrl Pts',(-0.270697418695197,0.770138534868003,-0.253493894676368));
#374=CARTESIAN_POINT('Ctrl Pts',(-0.258313031990548,0.77013879083916,-0.266718696458122));
#375=CARTESIAN_POINT('Ctrl Pts',(-0.244864387516406,0.770135479101664,-0.279134196097304));
#376=CARTESIAN_POINT('Ctrl Pts',(-0.230551454439561,0.770131253451827,-0.290509538194513));
#377=CARTESIAN_POINT('Ctrl Pts',(-0.21697109657334,0.77012724408235,-0.301302659052508));
#378=CARTESIAN_POINT('Ctrl Pts',(-0.202613889638544,0.770122409358576,-0.311158977388027));
#379=CARTESIAN_POINT('Ctrl Pts',(-0.187679238641374,0.770119041529887,-0.31992463700411));
#380=CARTESIAN_POINT('Ctrl Pts',(-0.186873607802509,0.770118859856632,-0.320397489413655));
#381=CARTESIAN_POINT('Ctrl Pts',(-0.186066301368105,0.770118682460218,-0.320867179848637));
#382=CARTESIAN_POINT('Ctrl Pts',(-0.185257352124892,0.770118509702964,-0.321333688275039));
#383=CARTESIAN_POINT('Ctrl Pts',(-0.175138452841169,0.770116348735183,-0.3271690998554));
#384=CARTESIAN_POINT('Ctrl Pts',(-0.164762406489598,0.770114913828138,-0.332505758545061));
#385=CARTESIAN_POINT('Ctrl Pts',(-0.154211101645459,0.770114913828138,-0.337328587617151));
#386=CARTESIAN_POINT('Ctrl Pts',(-0.138113244152704,0.770114913828138,-0.34468665529326));
#387=CARTESIAN_POINT('Ctrl Pts',(-0.12136914114102,0.770115818090911,-0.350938281454857));
#388=CARTESIAN_POINT('Ctrl Pts',(-0.104230482569701,0.770117041824283,-0.35595435575345));
#389=CARTESIAN_POINT('Ctrl Pts',(-0.0969862627609578,0.770117559075589,
-0.35807456514118));
#390=CARTESIAN_POINT('Ctrl Pts',(-0.0896719123059014,0.770118133397506,
-0.359974564471066));
#391=CARTESIAN_POINT('Ctrl Pts',(-0.0823076893297486,0.770118720695052,
-0.361647101226553));
#392=CARTESIAN_POINT('Ctrl Pts',(-0.0647881374406477,0.770120117881134,
-0.365626081027825));
#393=CARTESIAN_POINT('Ctrl Pts',(-0.0469861290814835,0.770121588306325,
-0.368314104202799));
#394=CARTESIAN_POINT('Ctrl Pts',(-0.0291832498193948,0.770122540431701,
-0.369713647854309));
#395=CARTESIAN_POINT('Ctrl Pts',(-0.0243191870069022,0.770122800569264,
-0.370096028037286));
#396=CARTESIAN_POINT('Ctrl Pts',(-0.0194550712788017,0.770123022031721,
-0.370382526072601));
#397=CARTESIAN_POINT('Ctrl Pts',(-0.0145966177046279,0.770123192775381,
-0.370573869526077));
#398=CARTESIAN_POINT('Ctrl Pts',(0.00287512984904363,0.770123806795888,
-0.371261970063448));
#399=CARTESIAN_POINT('Ctrl Pts',(0.0205223771740113,0.77012286762289,-0.370719573999029));
#400=CARTESIAN_POINT('Ctrl Pts',(0.0380722801843348,0.770121515911624,-0.368919620897839));
#401=CARTESIAN_POINT('Ctrl Pts',(0.0531182519693781,0.770120357055672,-0.36737647598365));
#402=CARTESIAN_POINT('Ctrl Pts',(0.0680920140445836,0.770118894617158,-0.364909883753873));
#403=CARTESIAN_POINT('Ctrl Pts',(0.08282432420979,0.770117849251798,-0.361533220066904));
#404=CARTESIAN_POINT('Ctrl Pts',(0.0979202639393751,0.770116778084257,-0.358073212034629));
#405=CARTESIAN_POINT('Ctrl Pts',(0.112762081218364,0.770116145268702,-0.353657860643861));
#406=CARTESIAN_POINT('Ctrl Pts',(0.127190100963865,0.770116727463514,-0.348385321144957));
#407=CARTESIAN_POINT('Ctrl Pts',(0.143746460015053,0.770117395540389,-0.342335006646139));
#408=CARTESIAN_POINT('Ctrl Pts',(0.159988366320405,0.770117325056049,-0.335055027998873));
#409=CARTESIAN_POINT('Ctrl Pts',(0.175654543596753,0.770117155075755,-0.326635862198593));
#410=CARTESIAN_POINT('Ctrl Pts',(0.191283419648369,0.770116985500185,-0.318236742462521));
#411=CARTESIAN_POINT('Ctrl Pts',(0.206338198256199,0.77011671681782,-0.308704430752618));
#412=CARTESIAN_POINT('Ctrl Pts',(0.220582218982138,0.770116983373477,-0.298174524433182));
#413=CARTESIAN_POINT('Ctrl Pts',(0.224297603747687,0.770117052901376,-0.295427922594093));
#414=CARTESIAN_POINT('Ctrl Pts',(0.2279579967431,0.770117158843517,-0.29261366387914));
#415=CARTESIAN_POINT('Ctrl Pts',(0.231559595127962,0.770117312442621,-0.289734590273828));
#416=CARTESIAN_POINT('Ctrl Pts',(0.237871798821601,0.770117581642217,-0.284688692007632));
#417=CARTESIAN_POINT('Ctrl Pts',(0.244003302349999,0.770117997245572,-0.279443647028371));
#418=CARTESIAN_POINT('Ctrl Pts',(0.249939891134489,0.770118619604761,-0.274022610085148));
#419=CARTESIAN_POINT('Ctrl Pts',(0.263284404715137,0.770120018569883,-0.261836975584233));
#420=CARTESIAN_POINT('Ctrl Pts',(0.275819779630516,0.770119832050552,-0.248574432513084));
#421=CARTESIAN_POINT('Ctrl Pts',(0.287338855365035,0.770119058528565,-0.23444215590137));
#422=CARTESIAN_POINT('Ctrl Pts',(0.298889638483911,0.770118282877383,-0.220270978813897));
#423=CARTESIAN_POINT('Ctrl Pts',(0.309417736656141,0.77011691620393,-0.205226348794669));
#424=CARTESIAN_POINT('Ctrl Pts',(0.318753396870423,0.770115964953771,-0.189550717160351));
#425=CARTESIAN_POINT('Ctrl Pts',(0.324387998356783,0.770115390820241,-0.180089582620427));
#426=CARTESIAN_POINT('Ctrl Pts',(0.329589030791357,0.770114968141272,-0.170399161431371));
#427=CARTESIAN_POINT('Ctrl Pts',(0.334327784381762,0.770114918681608,-0.160536110374384));
#428=CARTESIAN_POINT('Ctrl Pts',(0.334635849136341,0.770114915466252,-0.159894916789341));
#429=CARTESIAN_POINT('Ctrl Pts',(0.334941962681797,0.770114913828137,-0.159252994140843));
#430=CARTESIAN_POINT('Ctrl Pts',(0.335246123564812,0.770114913828137,-0.158610359665612));
#431=CARTESIAN_POINT('Ctrl Pts',(0.342682914966717,0.770114913828137,-0.142897824599938));
#432=CARTESIAN_POINT('Ctrl Pts',(0.349028093100849,0.770116331311668,-0.126595870550662));
#433=CARTESIAN_POINT('Ctrl Pts',(0.354192873633886,0.770117515612897,-0.109945711000296));
#434=CARTESIAN_POINT('Ctrl Pts',(0.357127196393214,0.770118188462794,-0.100486075338613));
#435=CARTESIAN_POINT('Ctrl Pts',(0.359681310291264,0.770118786147391,-0.0909146149978749));
#436=CARTESIAN_POINT('Ctrl Pts',(0.361845720839335,0.770119006777276,-0.0812786840244097));
#437=CARTESIAN_POINT('Ctrl Pts',(0.365688120355147,0.770119398453505,-0.0641723653826705));
#438=CARTESIAN_POINT('Ctrl Pts',(0.368324095005982,0.770117579859587,-0.0467236678450426));
#439=CARTESIAN_POINT('Ctrl Pts',(0.369709454249935,0.770116240263196,-0.0291970021841176));
#440=CARTESIAN_POINT('Ctrl Pts',(0.370470098845468,0.770115504745128,-0.019573820636882));
#441=CARTESIAN_POINT('Ctrl Pts',(0.370854638831294,0.770114913828138,-0.00992722150799934));
#442=CARTESIAN_POINT('Ctrl Pts',(0.370862435917749,0.770114913828138,-0.00030037311891539));
#443=CARTESIAN_POINT('',(0.515624830877967,0.649850393700787,-0.000417620723052645));
#444=CARTESIAN_POINT('Origin',(0.390664744480581,0.646693407119021,-0.000316411629717984));
#445=CARTESIAN_POINT('Origin',(0.,0.649850393700787,0.));
#446=CARTESIAN_POINT('Ctrl Pts',(0.515625,0.649850393700787,-5.46369598732853E-17));
#447=CARTESIAN_POINT('Ctrl Pts',(0.515625,0.649850393700787,-0.000139203850824451));
#448=CARTESIAN_POINT('Ctrl Pts',(0.515624943628465,0.649850393700787,-0.000278410780711425));
#449=CARTESIAN_POINT('Ctrl Pts',(0.515624830877967,0.649850393700787,-0.000417620723052658));
#450=CARTESIAN_POINT('Ctrl Pts',(0.51511247781402,0.670137093054182,-5.49794480859303E-17));
#451=CARTESIAN_POINT('Ctrl Pts',(0.51511247781402,0.670137093054182,-0.000139071908565724));
#452=CARTESIAN_POINT('Ctrl Pts',(0.515112421503721,0.670137093054182,-0.000278127621086422));
#453=CARTESIAN_POINT('Ctrl Pts',(0.515112308860091,0.670137093054182,-0.000417205615395175));
#454=CARTESIAN_POINT('Ctrl Pts',(0.504004409687522,0.710376470305167,-5.25764175121201E-17));
#455=CARTESIAN_POINT('Ctrl Pts',(0.504004409687522,0.710376470305167,-0.000136067394269523));
#456=CARTESIAN_POINT('Ctrl Pts',(0.504004354587048,0.710376470305167,-0.000272135497030944));
#457=CARTESIAN_POINT('Ctrl Pts',(0.504004244376975,0.710376470305167,-0.000408208845566896));
#458=CARTESIAN_POINT('Ctrl Pts',(0.453835448725379,0.763747120979636,-3.85655229717317E-17));
#459=CARTESIAN_POINT('Ctrl Pts',(0.453835448725379,0.763747120979636,-0.000122525979668451));
#460=CARTESIAN_POINT('Ctrl Pts',(0.453835399111939,0.763747120979636,-0.000245044102499572));
#461=CARTESIAN_POINT('Ctrl Pts',(0.453835299869963,0.763747120979636,-0.000367575443866411));
#462=CARTESIAN_POINT('Ctrl Pts',(0.40091792465173,0.77493713536982,-2.26774929097899E-17));
#463=CARTESIAN_POINT('Ctrl Pts',(0.40091792465173,0.77493713536982,-0.00010824240241863));
#464=CARTESIAN_POINT('Ctrl Pts',(0.400917880825711,0.77493713536982,-0.000216468756351481));
#465=CARTESIAN_POINT('Ctrl Pts',(0.400917793152958,0.77493713536982,-0.000324715895423656));
#466=CARTESIAN_POINT('Ctrl Pts',(0.370862557558535,0.770114913828138,-1.33786650836932E-17));
#467=CARTESIAN_POINT('Ctrl Pts',(0.370862557558535,0.770114913828138,-0.000100122174329677));
#468=CARTESIAN_POINT('Ctrl Pts',(0.370862517013387,0.770114913828138,-0.000200246563270792));
#469=CARTESIAN_POINT('Ctrl Pts',(0.370862435917749,0.770114913828138,-0.00030037311891539));
#470=CARTESIAN_POINT('Origin',(0.,0.649850393700787,0.));
#471=CARTESIAN_POINT('Ctrl Pts',(0.370862435917749,0.770114913828138,-0.00030037311891539));
#472=CARTESIAN_POINT('Ctrl Pts',(0.370862517013387,0.770114913828138,-0.000200246563270792));
#473=CARTESIAN_POINT('Ctrl Pts',(0.370862557558535,0.770114913828138,-0.000100122174329677));
#474=CARTESIAN_POINT('Ctrl Pts',(0.370862557558535,0.770114913828138,-1.33786650836932E-17));
#475=CARTESIAN_POINT('Origin',(0.,0.399850393700787,0.));
#476=CARTESIAN_POINT('',(0.0590551181102362,0.453,7.23216613669697E-18));
#477=CARTESIAN_POINT('Origin',(0.,0.453,0.));
#478=CARTESIAN_POINT('Origin',(0.430269502732167,0.399850393700787,5.26928169291672E-17));
#479=CARTESIAN_POINT('Origin',(0.,0.649850393700787,0.));
#480=CARTESIAN_POINT('',(-0.2525,0.649850393700787,-3.09223316784707E-17));
#481=CARTESIAN_POINT('Origin',(0.,0.649850393700787,0.));
#482=CARTESIAN_POINT('Origin',(0.,0.453,0.));
#483=CARTESIAN_POINT('',(-0.2525,0.453,-3.09223316784707E-17));
#484=CARTESIAN_POINT('',(-0.2525,0.453,3.09223316784707E-17));
#485=CARTESIAN_POINT('Origin',(0.,0.453,0.));
#486=CARTESIAN_POINT('Origin',(0.,0.453,0.));
#487=CARTESIAN_POINT('',(0.,0.,0.));
#488=UNCERTAINTY_MEASURE_WITH_UNIT(LENGTH_MEASURE(0.000393700787401575),
#495,'DISTANCE_ACCURACY_VALUE',
'Maximum model space distance between geometric entities at asserted c
onnectivities');
#489=UNCERTAINTY_MEASURE_WITH_UNIT(LENGTH_MEASURE(0.000393700787401575),
#495,'DISTANCE_ACCURACY_VALUE',
'Maximum model space distance between geometric entities at asserted c
onnectivities');
#490=UNCERTAINTY_MEASURE_WITH_UNIT(LENGTH_MEASURE(0.000393700787401575),
#495,'DISTANCE_ACCURACY_VALUE',
'Maximum model space distance between geometric entities at asserted c
onnectivities');
#491=(
GEOMETRIC_REPRESENTATION_CONTEXT(3)
GLOBAL_UNCERTAINTY_ASSIGNED_CONTEXT((#488))
GLOBAL_UNIT_ASSIGNED_CONTEXT((#495,#499,#500))
REPRESENTATION_CONTEXT('','3D')
);
#492=(
GEOMETRIC_REPRESENTATION_CONTEXT(3)
GLOBAL_UNCERTAINTY_ASSIGNED_CONTEXT((#489))
GLOBAL_UNIT_ASSIGNED_CONTEXT((#495,#499,#500))
REPRESENTATION_CONTEXT('','3D')
);
#493=(
GEOMETRIC_REPRESENTATION_CONTEXT(3)
GLOBAL_UNCERTAINTY_ASSIGNED_CONTEXT((#490))
GLOBAL_UNIT_ASSIGNED_CONTEXT((#495,#499,#500))
REPRESENTATION_CONTEXT('','3D')
);
#494=DIMENSIONAL_EXPONENTS(1.,0.,0.,0.,0.,0.,0.);
#495=(
CONVERSION_BASED_UNIT('inch',#498)
LENGTH_UNIT()
NAMED_UNIT(#494)
);
#496=(
LENGTH_UNIT()
NAMED_UNIT(*)
SI_UNIT(.MILLI.,.METRE.)
);
#497=(
LENGTH_UNIT()
NAMED_UNIT(*)
SI_UNIT($,.METRE.)
);
#498=LENGTH_MEASURE_WITH_UNIT(LENGTH_MEASURE(25.4),#496);
#499=(
NAMED_UNIT(*)
PLANE_ANGLE_UNIT()
SI_UNIT($,.RADIAN.)
);
#500=(
NAMED_UNIT(*)
SI_UNIT($,.STERADIAN.)
SOLID_ANGLE_UNIT()
);
#501=SHAPE_DEFINITION_REPRESENTATION(#503,#506);
#502=SHAPE_DEFINITION_REPRESENTATION(#504,#507);
#503=PRODUCT_DEFINITION_SHAPE('',$,#509);
#504=PRODUCT_DEFINITION_SHAPE('',$,#510);
#505=PRODUCT_DEFINITION_SHAPE($,$,#14);
#506=SHAPE_REPRESENTATION('',(#112,#125),#491);
#507=SHAPE_REPRESENTATION('',(#113),#492);
#508=PRODUCT_DEFINITION_CONTEXT('part definition',#516,'design');
#509=PRODUCT_DEFINITION('Circle Compass-Expo Edit for New Version',
'Circle Compass-Expo Edit for New Version v1',#511,#508);
#510=PRODUCT_DEFINITION('Bearing Cap','Bearing Cap',#512,#508);
#511=PRODUCT_DEFINITION_FORMATION('',$,#518);
#512=PRODUCT_DEFINITION_FORMATION('',$,#519);
#513=PRODUCT_RELATED_PRODUCT_CATEGORY(
'Circle Compass-Expo Edit for New Version v1',
'Circle Compass-Expo Edit for New Version v1',(#518));
#514=PRODUCT_RELATED_PRODUCT_CATEGORY('Bearing Cap','Bearing Cap',(#519));
#515=APPLICATION_PROTOCOL_DEFINITION('international standard',
'automotive_design',2009,#516);
#516=APPLICATION_CONTEXT(
'Core Data for Automotive Mechanical Design Process');
#517=PRODUCT_CONTEXT('part definition',#516,'mechanical');
#518=PRODUCT('Circle Compass-Expo Edit for New Version',
'Circle Compass-Expo Edit for New Version v1',$,(#517));
#519=PRODUCT('Bearing Cap','Bearing Cap',$,(#517));
#520=PRESENTATION_STYLE_ASSIGNMENT((#524));
#521=PRESENTATION_STYLE_ASSIGNMENT((#525));
#522=PRESENTATION_STYLE_ASSIGNMENT((#526));
#523=PRESENTATION_STYLE_ASSIGNMENT((#527));
#524=SURFACE_STYLE_USAGE(.BOTH.,#528);
#525=SURFACE_STYLE_USAGE(.BOTH.,#529);
#526=SURFACE_STYLE_USAGE(.BOTH.,#530);
#527=SURFACE_STYLE_USAGE(.BOTH.,#531);
#528=SURFACE_SIDE_STYLE('',(#532));
#529=SURFACE_SIDE_STYLE('',(#533));
#530=SURFACE_SIDE_STYLE('',(#534));
#531=SURFACE_SIDE_STYLE('',(#535));
#532=SURFACE_STYLE_FILL_AREA(#536);
#533=SURFACE_STYLE_FILL_AREA(#537);
#534=SURFACE_STYLE_FILL_AREA(#538);
#535=SURFACE_STYLE_FILL_AREA(#539);
#536=FILL_AREA_STYLE('Steel - Satin',(#540));
#537=FILL_AREA_STYLE('Steel - Satin',(#541));
#538=FILL_AREA_STYLE('Steel - Satin',(#542));
#539=FILL_AREA_STYLE('Steel - Satin (1)',(#543));
#540=FILL_AREA_STYLE_COLOUR('Steel - Satin',#544);
#541=FILL_AREA_STYLE_COLOUR('Steel - Satin',#545);
#542=FILL_AREA_STYLE_COLOUR('Steel - Satin',#546);
#543=FILL_AREA_STYLE_COLOUR('Steel - Satin (1)',#547);
#544=COLOUR_RGB('Steel - Satin',0.627450980392157,0.627450980392157,0.627450980392157);
#545=COLOUR_RGB('Steel - Satin',1.,1.,1.);
#546=COLOUR_RGB('Steel - Satin',0.,0.,0.);
#547=COLOUR_RGB('Steel - Satin (1)',0.301960784313725,0.301960784313725,
0.301960784313725);
ENDSEC;
END-ISO-10303-21;
